<?xml version="1.0" encoding="UTF-8"?><svg xmlns="http://www.w3.org/2000/svg" xmlns:xlink="http://www.w3.org/1999/xlink" class="svglite" width="504.00pt" height="504.00pt" viewBox="0 0 504.00 504.00">
    
    <defs>
          
        <style type="text/css"><![CDATA[
    .svglite line, .svglite polyline, .svglite polygon, .svglite path, .svglite rect, .svglite circle {
      fill: none;
      stroke: #000000;
      stroke-linecap: round;
      stroke-linejoin: round;
      stroke-miterlimit: 10.00;
    }
    .svglite text {
      white-space: pre;
    }
  ]]></style>
        
    </defs>
    
    <rect width="100%" height="100%" style="stroke: none; fill: #FFFFFF;"/>
    
    <defs>
          
        <clipPath id="cpMC4wMHw1MDQuMDB8MC4wMHw1MDQuMDA=">
                
            <rect x="0.00" y="0.00" width="504.00" height="504.00"/>
              
        </clipPath>
        
    </defs>
    
    <g clip-path="url(#cpMC4wMHw1MDQuMDB8MC4wMHw1MDQuMDA=)">
        
        <rect x="0.000000000000064" y="0.00" width="504.00" height="504.00" style="stroke-width: 1.07; stroke: #FFFFFF; fill: #FFFFFF;"/>
        
    </g>
    
    <defs>
          
        <clipPath id="cpMzMuMTR8NDE2LjE5fDUuNDh8NDcyLjUw">
                
            <rect x="33.14" y="5.48" width="383.06" height="467.02"/>
              
        </clipPath>
        
    </defs>
    
    <g clip-path="url(#cpMzMuMTR8NDE2LjE5fDUuNDh8NDcyLjUw)">
        
        <rect x="33.14" y="5.48" width="383.06" height="467.02" style="stroke-width: 1.07; stroke: none; fill: #EBEBEB;"/>
        
        <polyline points="33.14,389.74 416.19,389.74 " style="stroke-width: 0.53; stroke: #FFFFFF; stroke-linecap: butt;"/>
        
        <polyline points="33.14,266.68 416.19,266.68 " style="stroke-width: 0.53; stroke: #FFFFFF; stroke-linecap: butt;"/>
        
        <polyline points="33.14,143.62 416.19,143.62 " style="stroke-width: 0.53; stroke: #FFFFFF; stroke-linecap: butt;"/>
        
        <polyline points="33.14,20.55 416.19,20.55 " style="stroke-width: 0.53; stroke: #FFFFFF; stroke-linecap: butt;"/>
        
        <polyline points="108.98,472.50 108.98,5.48 " style="stroke-width: 0.53; stroke: #FFFFFF; stroke-linecap: butt;"/>
        
        <polyline points="225.83,472.50 225.83,5.48 " style="stroke-width: 0.53; stroke: #FFFFFF; stroke-linecap: butt;"/>
        
        <polyline points="342.69,472.50 342.69,5.48 " style="stroke-width: 0.53; stroke: #FFFFFF; stroke-linecap: butt;"/>
        
        <polyline points="33.14,451.28 416.19,451.28 " style="stroke-width: 1.07; stroke: #FFFFFF; stroke-linecap: butt;"/>
        
        <polyline points="33.14,328.21 416.19,328.21 " style="stroke-width: 1.07; stroke: #FFFFFF; stroke-linecap: butt;"/>
        
        <polyline points="33.14,205.15 416.19,205.15 " style="stroke-width: 1.07; stroke: #FFFFFF; stroke-linecap: butt;"/>
        
        <polyline points="33.14,82.09 416.19,82.09 " style="stroke-width: 1.07; stroke: #FFFFFF; stroke-linecap: butt;"/>
        
        <polyline points="50.55,472.50 50.55,5.48 " style="stroke-width: 1.07; stroke: #FFFFFF; stroke-linecap: butt;"/>
        
        <polyline points="167.41,472.50 167.41,5.48 " style="stroke-width: 1.07; stroke: #FFFFFF; stroke-linecap: butt;"/>
        
        <polyline points="284.26,472.50 284.26,5.48 " style="stroke-width: 1.07; stroke: #FFFFFF; stroke-linecap: butt;"/>
        
        <polyline points="401.12,472.50 401.12,5.48 " style="stroke-width: 1.07; stroke: #FFFFFF; stroke-linecap: butt;"/>
        
        <polygon points="50.55,365.13 52.89,365.13 55.22,371.28 57.56,358.98 59.90,365.13 62.24,346.67 64.57,365.13 66.91,358.98 69.25,365.13 71.58,358.98 73.92,358.98 76.26,352.82 78.60,365.13 80.93,383.59 83.27,377.44 85.61,358.98 87.94,371.28 90.28,365.13 92.62,346.67 94.96,358.98 97.29,346.67 99.63,358.98 101.97,445.12 104.30,346.67 106.64,334.37 108.98,352.82 111.32,352.82 113.65,358.98 115.99,365.13 118.33,352.82 120.66,352.82 123.00,358.98 125.34,358.98 127.68,365.13 130.01,358.98 132.35,377.44 134.69,371.28 137.02,365.13 139.36,371.28 141.70,358.98 144.03,371.28 146.37,371.28 148.71,371.28 151.05,352.82 153.38,334.37 155.72,365.13 158.06,352.82 160.39,365.13 162.73,358.98 165.07,365.13 165.07,451.28 162.73,451.28 160.39,451.28 158.06,451.28 155.72,451.28 153.38,451.28 151.05,451.28 148.71,451.28 146.37,451.28 144.03,451.28 141.70,451.28 139.36,451.28 137.02,451.28 134.69,451.28 132.35,451.28 130.01,451.28 127.68,451.28 125.34,451.28 123.00,451.28 120.66,451.28 118.33,451.28 115.99,451.28 113.65,451.28 111.32,451.28 108.98,451.28 106.64,451.28 104.30,451.28 101.97,451.28 99.63,451.28 97.29,451.28 94.96,451.28 92.62,451.28 90.28,451.28 87.94,451.28 85.61,451.28 83.27,451.28 80.93,451.28 78.60,451.28 76.26,451.28 73.92,451.28 71.58,451.28 69.25,451.28 66.91,451.28 64.57,451.28 62.24,451.28 59.90,451.28 57.56,451.28 55.22,451.28 52.89,451.28 50.55,451.28 " style="stroke-width: 0.00; stroke: none; stroke-linecap: butt; fill: #F8766D;"/>
        
        <polyline points="50.55,365.13 52.89,365.13 55.22,371.28 57.56,358.98 59.90,365.13 62.24,346.67 64.57,365.13 66.91,358.98 69.25,365.13 71.58,358.98 73.92,358.98 76.26,352.82 78.60,365.13 80.93,383.59 83.27,377.44 85.61,358.98 87.94,371.28 90.28,365.13 92.62,346.67 94.96,358.98 97.29,346.67 99.63,358.98 101.97,445.12 104.30,346.67 106.64,334.37 108.98,352.82 111.32,352.82 113.65,358.98 115.99,365.13 118.33,352.82 120.66,352.82 123.00,358.98 125.34,358.98 127.68,365.13 130.01,358.98 132.35,377.44 134.69,371.28 137.02,365.13 139.36,371.28 141.70,358.98 144.03,371.28 146.37,371.28 148.71,371.28 151.05,352.82 153.38,334.37 155.72,365.13 158.06,352.82 160.39,365.13 162.73,358.98 165.07,365.13 " style="stroke-width: 1.07; stroke: none; stroke-linecap: butt;"/>
        
        <polygon points="167.41,162.08 169.74,174.38 172.08,149.77 174.42,426.66 176.75,168.23 179.09,174.38 181.43,162.08 183.77,248.22 186.10,168.23 188.44,211.30 190.78,235.92 193.11,192.84 195.45,426.66 197.79,162.08 200.13,229.76 202.46,180.54 204.80,174.38 207.14,199.00 209.47,174.38 211.81,211.30 214.15,155.92 216.49,426.66 218.82,149.77 221.16,162.08 223.50,186.69 225.83,180.54 228.17,155.92 230.51,420.51 232.85,174.38 235.18,235.92 237.52,217.46 239.86,223.61 242.19,211.30 244.53,137.46 246.87,174.38 249.21,174.38 251.54,162.08 253.88,180.54 256.22,199.00 258.55,426.66 260.89,180.54 263.23,168.23 265.57,426.66 267.90,248.22 270.24,192.84 272.58,192.84 274.91,192.84 277.25,186.69 279.59,432.82 281.93,199.00 281.93,451.28 279.59,451.28 277.25,451.28 274.91,451.28 272.58,451.28 270.24,451.28 267.90,451.28 265.57,451.28 263.23,451.28 260.89,451.28 258.55,451.28 256.22,451.28 253.88,451.28 251.54,451.28 249.21,451.28 246.87,451.28 244.53,451.28 242.19,451.28 239.86,451.28 237.52,451.28 235.18,451.28 232.85,451.28 230.51,451.28 228.17,451.28 225.83,451.28 223.50,451.28 221.16,451.28 218.82,451.28 216.49,451.28 214.15,451.28 211.81,451.28 209.47,451.28 207.14,451.28 204.80,451.28 202.46,451.28 200.13,451.28 197.79,451.28 195.45,451.28 193.11,451.28 190.78,451.28 188.44,451.28 186.10,451.28 183.77,451.28 181.43,451.28 179.09,451.28 176.75,451.28 174.42,451.28 172.08,451.28 169.74,451.28 167.41,451.28 " style="stroke-width: 0.00; stroke: none; stroke-linecap: butt; fill: #00BA38;"/>
        
        <polyline points="167.41,162.08 169.74,174.38 172.08,149.77 174.42,426.66 176.75,168.23 179.09,174.38 181.43,162.08 183.77,248.22 186.10,168.23 188.44,211.30 190.78,235.92 193.11,192.84 195.45,426.66 197.79,162.08 200.13,229.76 202.46,180.54 204.80,174.38 207.14,199.00 209.47,174.38 211.81,211.30 214.15,155.92 216.49,426.66 218.82,149.77 221.16,162.08 223.50,186.69 225.83,180.54 228.17,155.92 230.51,420.51 232.85,174.38 235.18,235.92 237.52,217.46 239.86,223.61 242.19,211.30 244.53,137.46 246.87,174.38 249.21,174.38 251.54,162.08 253.88,180.54 256.22,199.00 258.55,426.66 260.89,180.54 263.23,168.23 265.57,426.66 267.90,248.22 270.24,192.84 272.58,192.84 274.91,192.84 277.25,186.69 279.59,432.82 281.93,199.00 " style="stroke-width: 1.07; stroke: none; stroke-linecap: butt;"/>
        
        <polygon points="284.26,414.36 286.60,137.46 288.94,88.24 291.27,106.70 293.61,94.39 295.95,45.17 298.29,174.38 300.62,63.63 302.96,94.39 305.30,75.93 307.63,137.46 309.97,125.16 312.31,112.85 314.65,420.51 316.98,137.46 319.32,125.16 321.66,112.85 323.99,39.01 326.33,26.71 328.67,420.51 331.01,100.55 333.34,149.77 335.68,39.01 338.02,149.77 340.35,100.55 342.69,414.36 345.03,155.92 347.37,149.77 349.70,106.70 352.04,94.39 354.38,75.93 356.71,57.47 359.05,106.70 361.39,137.46 363.73,106.70 366.06,75.93 368.40,106.70 370.74,112.85 373.07,155.92 375.41,119.01 377.75,106.70 380.09,137.46 382.42,137.46 384.76,88.24 387.10,100.55 389.43,131.31 391.77,420.51 394.11,131.31 396.45,119.01 398.78,137.46 398.78,451.28 396.45,451.28 394.11,451.28 391.77,451.28 389.43,451.28 387.10,451.28 384.76,451.28 382.42,451.28 380.09,451.28 377.75,451.28 375.41,451.28 373.07,451.28 370.74,451.28 368.40,451.28 366.06,451.28 363.73,451.28 361.39,451.28 359.05,451.28 356.71,451.28 354.38,451.28 352.04,451.28 349.70,451.28 347.37,451.28 345.03,451.28 342.69,451.28 340.35,451.28 338.02,451.28 335.68,451.28 333.34,451.28 331.01,451.28 328.67,451.28 326.33,451.28 323.99,451.28 321.66,451.28 319.32,451.28 316.98,451.28 314.65,451.28 312.31,451.28 309.97,451.28 307.63,451.28 305.30,451.28 302.96,451.28 300.62,451.28 298.29,451.28 295.95,451.28 293.61,451.28 291.27,451.28 288.94,451.28 286.60,451.28 284.26,451.28 " style="stroke-width: 0.00; stroke: none; stroke-linecap: butt; fill: #619CFF;"/>
        
        <polyline points="284.26,414.36 286.60,137.46 288.94,88.24 291.27,106.70 293.61,94.39 295.95,45.17 298.29,174.38 300.62,63.63 302.96,94.39 305.30,75.93 307.63,137.46 309.97,125.16 312.31,112.85 314.65,420.51 316.98,137.46 319.32,125.16 321.66,112.85 323.99,39.01 326.33,26.71 328.67,420.51 331.01,100.55 333.34,149.77 335.68,39.01 338.02,149.77 340.35,100.55 342.69,414.36 345.03,155.92 347.37,149.77 349.70,106.70 352.04,94.39 354.38,75.93 356.71,57.47 359.05,106.70 361.39,137.46 363.73,106.70 366.06,75.93 368.40,106.70 370.74,112.85 373.07,155.92 375.41,119.01 377.75,106.70 380.09,137.46 382.42,137.46 384.76,88.24 387.10,100.55 389.43,131.31 391.77,420.51 394.11,131.31 396.45,119.01 398.78,137.46 " style="stroke-width: 1.07; stroke: none; stroke-linecap: butt;"/>
        
    </g>
    
    <g clip-path="url(#cpMC4wMHw1MDQuMDB8MC4wMHw1MDQuMDA=)">
        
        <text x="28.21" y="454.43" text-anchor="end" style="font-size: 8.80px;fill: #4D4D4D; font-family: &quot;Arial&quot;;" textLength="4.90px" lengthAdjust="spacingAndGlyphs">0</text>
        
        <text x="28.21" y="331.36" text-anchor="end" style="font-size: 8.80px;fill: #4D4D4D; font-family: &quot;Arial&quot;;" textLength="9.79px" lengthAdjust="spacingAndGlyphs">20</text>
        
        <text x="28.21" y="208.30" text-anchor="end" style="font-size: 8.80px;fill: #4D4D4D; font-family: &quot;Arial&quot;;" textLength="9.79px" lengthAdjust="spacingAndGlyphs">40</text>
        
        <text x="28.21" y="85.24" text-anchor="end" style="font-size: 8.80px;fill: #4D4D4D; font-family: &quot;Arial&quot;;" textLength="9.79px" lengthAdjust="spacingAndGlyphs">60</text>
        
        <polyline points="30.40,451.28 33.14,451.28 " style="stroke-width: 1.07; stroke: #333333; stroke-linecap: butt;"/>
        
        <polyline points="30.40,328.21 33.14,328.21 " style="stroke-width: 1.07; stroke: #333333; stroke-linecap: butt;"/>
        
        <polyline points="30.40,205.15 33.14,205.15 " style="stroke-width: 1.07; stroke: #333333; stroke-linecap: butt;"/>
        
        <polyline points="30.40,82.09 33.14,82.09 " style="stroke-width: 1.07; stroke: #333333; stroke-linecap: butt;"/>
        
        <polyline points="50.55,475.24 50.55,472.50 " style="stroke-width: 1.07; stroke: #333333; stroke-linecap: butt;"/>
        
        <polyline points="167.41,475.24 167.41,472.50 " style="stroke-width: 1.07; stroke: #333333; stroke-linecap: butt;"/>
        
        <polyline points="284.26,475.24 284.26,472.50 " style="stroke-width: 1.07; stroke: #333333; stroke-linecap: butt;"/>
        
        <polyline points="401.12,475.24 401.12,472.50 " style="stroke-width: 1.07; stroke: #333333; stroke-linecap: butt;"/>
        
        <text x="50.55" y="483.74" text-anchor="middle" style="font-size: 8.80px;fill: #4D4D4D; font-family: &quot;Arial&quot;;" textLength="4.90px" lengthAdjust="spacingAndGlyphs">0</text>
        
        <text x="167.41" y="483.74" text-anchor="middle" style="font-size: 8.80px;fill: #4D4D4D; font-family: &quot;Arial&quot;;" textLength="9.79px" lengthAdjust="spacingAndGlyphs">50</text>
        
        <text x="284.26" y="483.74" text-anchor="middle" style="font-size: 8.80px;fill: #4D4D4D; font-family: &quot;Arial&quot;;" textLength="14.69px" lengthAdjust="spacingAndGlyphs">100</text>
        
        <text x="401.12" y="483.74" text-anchor="middle" style="font-size: 8.80px;fill: #4D4D4D; font-family: &quot;Arial&quot;;" textLength="14.69px" lengthAdjust="spacingAndGlyphs">150</text>
        
        <text x="224.67" y="496.20" text-anchor="middle" style="font-size: 11.00px; font-family: &quot;Arial&quot;;" textLength="17.73px" lengthAdjust="spacingAndGlyphs">row</text>
        
        <text transform="translate(13.36,238.99) rotate(-90)" text-anchor="middle" style="font-size: 11.00px; font-family: &quot;Arial&quot;;" textLength="61.80px" lengthAdjust="spacingAndGlyphs">Petal.Length</text>
        
        <rect x="427.15" y="199.75" width="71.37" height="78.47" style="stroke-width: 1.07; stroke: none; fill: #FFFFFF;"/>
        
        <text x="432.63" y="214.27" style="font-size: 11.00px; font-family: &quot;Arial&quot;;" textLength="39.14px" lengthAdjust="spacingAndGlyphs">Species</text>
        
        <rect x="432.63" y="220.91" width="17.28" height="17.28" style="stroke-width: 1.07; stroke: none; fill: #EBEBEB;"/>
        
        <rect x="433.34" y="221.62" width="15.86" height="15.86" style="stroke-width: 1.07; stroke: none; stroke-linecap: butt; stroke-linejoin: miter; fill: #F8766D;"/>
        
        <rect x="432.63" y="238.19" width="17.28" height="17.28" style="stroke-width: 1.07; stroke: none; fill: #EBEBEB;"/>
        
        <rect x="433.34" y="238.90" width="15.86" height="15.86" style="stroke-width: 1.07; stroke: none; stroke-linecap: butt; stroke-linejoin: miter; fill: #00BA38;"/>
        
        <rect x="432.63" y="255.47" width="17.28" height="17.28" style="stroke-width: 1.07; stroke: none; fill: #EBEBEB;"/>
        
        <rect x="433.34" y="256.18" width="15.86" height="15.86" style="stroke-width: 1.07; stroke: none; stroke-linecap: butt; stroke-linejoin: miter; fill: #619CFF;"/>
        
        <text x="455.39" y="232.70" style="font-size: 8.80px; font-family: &quot;Arial&quot;;" textLength="25.93px" lengthAdjust="spacingAndGlyphs">setosa</text>
        
        <text x="455.39" y="249.98" style="font-size: 8.80px; font-family: &quot;Arial&quot;;" textLength="37.65px" lengthAdjust="spacingAndGlyphs">versicolor</text>
        
        <text x="455.39" y="267.26" style="font-size: 8.80px; font-family: &quot;Arial&quot;;" textLength="32.27px" lengthAdjust="spacingAndGlyphs">virginica</text>
        
    </g>
    
</svg>