<?xml version="1.0" encoding="UTF-8"?><svg xmlns="http://www.w3.org/2000/svg" xmlns:xlink="http://www.w3.org/1999/xlink" class="svglite" width="504.00pt" height="504.00pt" viewBox="0 0 504.00 504.00">
    
    <defs>
          
        <style type="text/css"><![CDATA[
    .svglite line, .svglite polyline, .svglite polygon, .svglite path, .svglite rect, .svglite circle {
      fill: none;
      stroke: #000000;
      stroke-linecap: round;
      stroke-linejoin: round;
      stroke-miterlimit: 10.00;
    }
    .svglite text {
      white-space: pre;
    }
  ]]></style>
        
    </defs>
    
    <rect width="100%" height="100%" style="stroke: none; fill: #FFFFFF;"/>
    
    <defs>
          
        <clipPath id="cpMC4wMHw1MDQuMDB8MC4wMHw1MDQuMDA=">
                
            <rect x="0.00" y="0.00" width="504.00" height="504.00"/>
              
        </clipPath>
        
    </defs>
    
    <g clip-path="url(#cpMC4wMHw1MDQuMDB8MC4wMHw1MDQuMDA=)">
        
        <rect x="0.00" y="0.00" width="504.00" height="504.00" style="stroke-width: 1.07; stroke: #FFFFFF; fill: #FFFFFF;"/>
        
    </g>
    
    <defs>
          
        <clipPath id="cpMzguMDN8NDk4LjUyfDUuNDh8NDcyLjUw">
                
            <rect x="38.03" y="5.48" width="460.49" height="467.02"/>
              
        </clipPath>
        
    </defs>
    
    <g clip-path="url(#cpMzguMDN8NDk4LjUyfDUuNDh8NDcyLjUw)">
        
        <rect x="38.03" y="5.48" width="460.49" height="467.02" style="stroke-width: 1.07; stroke: none; fill: #EBEBEB;"/>
        
        <polyline points="38.03,398.20 498.52,398.20 " style="stroke-width: 0.53; stroke: #FFFFFF; stroke-linecap: butt;"/>
        
        <polyline points="38.03,292.06 498.52,292.06 " style="stroke-width: 0.53; stroke: #FFFFFF; stroke-linecap: butt;"/>
        
        <polyline points="38.03,185.92 498.52,185.92 " style="stroke-width: 0.53; stroke: #FFFFFF; stroke-linecap: butt;"/>
        
        <polyline points="38.03,79.78 498.52,79.78 " style="stroke-width: 0.53; stroke: #FFFFFF; stroke-linecap: butt;"/>
        
        <polyline points="112.91,472.50 112.91,5.48 " style="stroke-width: 0.53; stroke: #FFFFFF; stroke-linecap: butt;"/>
        
        <polyline points="220.80,472.50 220.80,5.48 " style="stroke-width: 0.53; stroke: #FFFFFF; stroke-linecap: butt;"/>
        
        <polyline points="328.70,472.50 328.70,5.48 " style="stroke-width: 0.53; stroke: #FFFFFF; stroke-linecap: butt;"/>
        
        <polyline points="436.59,472.50 436.59,5.48 " style="stroke-width: 0.53; stroke: #FFFFFF; stroke-linecap: butt;"/>
        
        <polyline points="38.03,451.28 498.52,451.28 " style="stroke-width: 1.07; stroke: #FFFFFF; stroke-linecap: butt;"/>
        
        <polyline points="38.03,345.13 498.52,345.13 " style="stroke-width: 1.07; stroke: #FFFFFF; stroke-linecap: butt;"/>
        
        <polyline points="38.03,238.99 498.52,238.99 " style="stroke-width: 1.07; stroke: #FFFFFF; stroke-linecap: butt;"/>
        
        <polyline points="38.03,132.85 498.52,132.85 " style="stroke-width: 1.07; stroke: #FFFFFF; stroke-linecap: butt;"/>
        
        <polyline points="38.03,26.71 498.52,26.71 " style="stroke-width: 1.07; stroke: #FFFFFF; stroke-linecap: butt;"/>
        
        <polyline points="58.97,472.50 58.97,5.48 " style="stroke-width: 1.07; stroke: #FFFFFF; stroke-linecap: butt;"/>
        
        <polyline points="166.86,472.50 166.86,5.48 " style="stroke-width: 1.07; stroke: #FFFFFF; stroke-linecap: butt;"/>
        
        <polyline points="274.75,472.50 274.75,5.48 " style="stroke-width: 1.07; stroke: #FFFFFF; stroke-linecap: butt;"/>
        
        <polyline points="382.64,472.50 382.64,5.48 " style="stroke-width: 1.07; stroke: #FFFFFF; stroke-linecap: butt;"/>
        
        <polyline points="490.54,472.50 490.54,5.48 " style="stroke-width: 1.07; stroke: #FFFFFF; stroke-linecap: butt;"/>
        
        <polygon points="58.97,79.78 63.28,26.71 67.60,79.78 71.91,79.78 76.23,132.85 80.54,79.78 84.86,79.78 89.18,79.78 93.49,26.71 97.81,26.71 102.12,26.71 106.44,26.71 110.75,26.71 115.07,79.78 119.39,79.78 123.70,132.85 128.02,132.85 132.33,132.85 136.65,132.85 140.96,132.85 145.28,185.92 149.60,185.92 153.91,132.85 158.23,132.85 162.54,132.85 166.86,185.92 171.17,132.85 175.49,132.85 179.81,132.85 184.12,132.85 188.44,132.85 192.75,132.85 197.07,132.85 201.38,79.78 205.70,132.85 210.02,185.92 214.33,185.92 218.65,185.92 222.96,132.85 227.28,185.92 231.59,185.92 235.91,132.85 240.23,79.78 244.54,79.78 248.86,132.85 253.17,132.85 257.49,185.92 261.80,185.92 266.12,185.92 270.44,238.99 274.75,292.06 279.07,292.06 283.38,238.99 287.70,185.92 292.01,79.78 296.33,132.85 300.65,238.99 304.96,292.06 309.28,292.06 313.59,292.06 317.91,292.06 322.22,292.06 326.54,292.06 330.86,238.99 335.17,185.92 339.49,238.99 343.80,238.99 348.12,185.92 352.43,132.85 356.75,132.85 361.07,132.85 365.38,132.85 369.70,132.85 374.01,132.85 378.33,238.99 382.64,185.92 386.96,132.85 391.28,79.78 395.59,79.78 399.91,132.85 404.22,132.85 408.54,185.92 412.85,185.92 417.17,238.99 421.49,238.99 425.80,132.85 430.12,185.92 434.43,238.99 438.75,292.06 443.06,345.13 447.38,292.06 451.70,238.99 456.01,185.92 460.33,185.92 464.64,132.85 468.96,132.85 473.27,132.85 477.59,132.85 477.59,238.99 473.27,238.99 468.96,238.99 464.64,238.99 460.33,292.06 456.01,292.06 451.70,345.13 447.38,398.20 443.06,451.28 438.75,398.20 434.43,345.13 430.12,292.06 425.80,238.99 421.49,345.13 417.17,345.13 412.85,292.06 408.54,292.06 404.22,238.99 399.91,238.99 395.59,185.92 391.28,185.92 386.96,238.99 382.64,292.06 378.33,345.13 374.01,238.99 369.70,238.99 365.38,238.99 361.07,238.99 356.75,238.99 352.43,238.99 348.12,292.06 343.80,345.13 339.49,345.13 335.17,292.06 330.86,345.13 326.54,398.20 322.22,398.20 317.91,398.20 313.59,398.20 309.28,398.20 304.96,398.20 300.65,345.13 296.33,238.99 292.01,185.92 287.70,292.06 283.38,345.13 279.07,398.20 274.75,398.20 270.44,345.13 266.12,292.06 261.80,292.06 257.49,292.06 253.17,238.99 248.86,238.99 244.54,185.92 240.23,185.92 235.91,238.99 231.59,292.06 227.28,292.06 222.96,238.99 218.65,292.06 214.33,292.06 210.02,292.06 205.70,238.99 201.38,185.92 197.07,238.99 192.75,238.99 188.44,238.99 184.12,238.99 179.81,238.99 175.49,238.99 171.17,238.99 166.86,292.06 162.54,238.99 158.23,238.99 153.91,238.99 149.60,292.06 145.28,292.06 140.96,238.99 136.65,238.99 132.33,238.99 128.02,238.99 123.70,238.99 119.39,185.92 115.07,185.92 110.75,132.85 106.44,132.85 102.12,132.85 97.81,132.85 93.49,132.85 89.18,185.92 84.86,185.92 80.54,185.92 76.23,238.99 71.91,185.92 67.60,185.92 63.28,132.85 58.97,185.92 " style="stroke-width: 0.00; stroke: none; stroke-linecap: butt; fill: #B3B3B3;"/>
        
        <polyline points="58.97,79.78 63.28,26.71 67.60,79.78 71.91,79.78 76.23,132.85 80.54,79.78 84.86,79.78 89.18,79.78 93.49,26.71 97.81,26.71 102.12,26.71 106.44,26.71 110.75,26.71 115.07,79.78 119.39,79.78 123.70,132.85 128.02,132.85 132.33,132.85 136.65,132.85 140.96,132.85 145.28,185.92 149.60,185.92 153.91,132.85 158.23,132.85 162.54,132.85 166.86,185.92 171.17,132.85 175.49,132.85 179.81,132.85 184.12,132.85 188.44,132.85 192.75,132.85 197.07,132.85 201.38,79.78 205.70,132.85 210.02,185.92 214.33,185.92 218.65,185.92 222.96,132.85 227.28,185.92 231.59,185.92 235.91,132.85 240.23,79.78 244.54,79.78 248.86,132.85 253.17,132.85 257.49,185.92 261.80,185.92 266.12,185.92 270.44,238.99 274.75,292.06 279.07,292.06 283.38,238.99 287.70,185.92 292.01,79.78 296.33,132.85 300.65,238.99 304.96,292.06 309.28,292.06 313.59,292.06 317.91,292.06 322.22,292.06 326.54,292.06 330.86,238.99 335.17,185.92 339.49,238.99 343.80,238.99 348.12,185.92 352.43,132.85 356.75,132.85 361.07,132.85 365.38,132.85 369.70,132.85 374.01,132.85 378.33,238.99 382.64,185.92 386.96,132.85 391.28,79.78 395.59,79.78 399.91,132.85 404.22,132.85 408.54,185.92 412.85,185.92 417.17,238.99 421.49,238.99 425.80,132.85 430.12,185.92 434.43,238.99 438.75,292.06 443.06,345.13 447.38,292.06 451.70,238.99 456.01,185.92 460.33,185.92 464.64,132.85 468.96,132.85 473.27,132.85 477.59,132.85 " style="stroke-width: 1.07; stroke: none; stroke-linecap: butt;"/>
        
        <polyline points="477.59,238.99 473.27,238.99 468.96,238.99 464.64,238.99 460.33,292.06 456.01,292.06 451.70,345.13 447.38,398.20 443.06,451.28 438.75,398.20 434.43,345.13 430.12,292.06 425.80,238.99 421.49,345.13 417.17,345.13 412.85,292.06 408.54,292.06 404.22,238.99 399.91,238.99 395.59,185.92 391.28,185.92 386.96,238.99 382.64,292.06 378.33,345.13 374.01,238.99 369.70,238.99 365.38,238.99 361.07,238.99 356.75,238.99 352.43,238.99 348.12,292.06 343.80,345.13 339.49,345.13 335.17,292.06 330.86,345.13 326.54,398.20 322.22,398.20 317.91,398.20 313.59,398.20 309.28,398.20 304.96,398.20 300.65,345.13 296.33,238.99 292.01,185.92 287.70,292.06 283.38,345.13 279.07,398.20 274.75,398.20 270.44,345.13 266.12,292.06 261.80,292.06 257.49,292.06 253.17,238.99 248.86,238.99 244.54,185.92 240.23,185.92 235.91,238.99 231.59,292.06 227.28,292.06 222.96,238.99 218.65,292.06 214.33,292.06 210.02,292.06 205.70,238.99 201.38,185.92 197.07,238.99 192.75,238.99 188.44,238.99 184.12,238.99 179.81,238.99 175.49,238.99 171.17,238.99 166.86,292.06 162.54,238.99 158.23,238.99 153.91,238.99 149.60,292.06 145.28,292.06 140.96,238.99 136.65,238.99 132.33,238.99 128.02,238.99 123.70,238.99 119.39,185.92 115.07,185.92 110.75,132.85 106.44,132.85 102.12,132.85 97.81,132.85 93.49,132.85 89.18,185.92 84.86,185.92 80.54,185.92 76.23,238.99 71.91,185.92 67.60,185.92 63.28,132.85 58.97,185.92 " style="stroke-width: 1.07; stroke: none; stroke-linecap: butt;"/>
        
        <polyline points="58.97,112.68 63.28,34.14 67.60,81.37 71.91,90.39 76.23,143.99 80.54,112.15 84.86,110.56 89.18,89.33 93.49,58.55 97.81,62.80 102.12,56.43 106.44,43.69 110.75,70.76 115.07,104.72 119.39,132.32 123.70,137.63 128.02,178.49 132.33,177.43 136.65,156.73 140.96,150.36 145.28,215.64 149.60,226.25 153.91,180.61 158.23,181.14 162.54,167.35 166.86,195.47 171.17,168.94 175.49,185.39 179.81,185.92 184.12,143.46 188.44,141.87 192.75,147.71 197.07,138.69 201.38,132.32 205.70,166.28 210.02,202.37 214.33,228.91 218.65,203.43 222.96,156.73 227.28,190.17 231.59,234.22 235.91,166.28 240.23,125.95 244.54,125.42 248.86,158.85 253.17,173.18 257.49,203.96 261.80,193.35 266.12,236.34 270.44,250.14 274.75,305.33 279.07,305.33 283.38,248.54 287.70,205.03 292.01,102.07 296.33,160.45 300.65,271.90 304.96,297.37 309.28,295.25 313.59,332.40 317.91,300.55 322.22,300.02 326.54,297.37 330.86,250.14 335.17,229.44 339.49,265.00 343.80,279.86 348.12,216.70 352.43,153.55 356.75,183.27 361.07,172.12 365.38,174.25 369.70,165.75 374.01,180.61 378.33,241.65 382.64,232.62 386.96,146.12 391.28,87.74 395.59,111.09 399.91,134.97 404.22,153.55 408.54,198.66 412.85,229.44 417.17,280.92 421.49,285.16 425.80,180.61 430.12,225.72 434.43,243.77 438.75,297.90 443.06,347.26 447.38,302.68 451.70,255.97 456.01,218.82 460.33,211.39 464.64,146.65 468.96,169.47 473.27,138.69 477.59,134.97 " style="stroke-width: 1.07; stroke-linecap: butt;"/>
        
    </g>
    
    <g clip-path="url(#cpMC4wMHw1MDQuMDB8MC4wMHw1MDQuMDA=)">
        
        <text x="33.10" y="454.43" text-anchor="end" style="font-size: 8.80px;fill: #4D4D4D; font-family: &quot;Arial&quot;;" textLength="14.69px" lengthAdjust="spacingAndGlyphs">574</text>
        
        <text x="33.10" y="348.28" text-anchor="end" style="font-size: 8.80px;fill: #4D4D4D; font-family: &quot;Arial&quot;;" textLength="14.69px" lengthAdjust="spacingAndGlyphs">576</text>
        
        <text x="33.10" y="242.14" text-anchor="end" style="font-size: 8.80px;fill: #4D4D4D; font-family: &quot;Arial&quot;;" textLength="14.69px" lengthAdjust="spacingAndGlyphs">578</text>
        
        <text x="33.10" y="136.00" text-anchor="end" style="font-size: 8.80px;fill: #4D4D4D; font-family: &quot;Arial&quot;;" textLength="14.69px" lengthAdjust="spacingAndGlyphs">580</text>
        
        <text x="33.10" y="29.86" text-anchor="end" style="font-size: 8.80px;fill: #4D4D4D; font-family: &quot;Arial&quot;;" textLength="14.69px" lengthAdjust="spacingAndGlyphs">582</text>
        
        <polyline points="35.29,451.28 38.03,451.28 " style="stroke-width: 1.07; stroke: #333333; stroke-linecap: butt;"/>
        
        <polyline points="35.29,345.13 38.03,345.13 " style="stroke-width: 1.07; stroke: #333333; stroke-linecap: butt;"/>
        
        <polyline points="35.29,238.99 38.03,238.99 " style="stroke-width: 1.07; stroke: #333333; stroke-linecap: butt;"/>
        
        <polyline points="35.29,132.85 38.03,132.85 " style="stroke-width: 1.07; stroke: #333333; stroke-linecap: butt;"/>
        
        <polyline points="35.29,26.71 38.03,26.71 " style="stroke-width: 1.07; stroke: #333333; stroke-linecap: butt;"/>
        
        <polyline points="58.97,475.24 58.97,472.50 " style="stroke-width: 1.07; stroke: #333333; stroke-linecap: butt;"/>
        
        <polyline points="166.86,475.24 166.86,472.50 " style="stroke-width: 1.07; stroke: #333333; stroke-linecap: butt;"/>
        
        <polyline points="274.75,475.24 274.75,472.50 " style="stroke-width: 1.07; stroke: #333333; stroke-linecap: butt;"/>
        
        <polyline points="382.64,475.24 382.64,472.50 " style="stroke-width: 1.07; stroke: #333333; stroke-linecap: butt;"/>
        
        <polyline points="490.54,475.24 490.54,472.50 " style="stroke-width: 1.07; stroke: #333333; stroke-linecap: butt;"/>
        
        <text x="58.97" y="483.74" text-anchor="middle" style="font-size: 8.80px;fill: #4D4D4D; font-family: &quot;Arial&quot;;" textLength="19.58px" lengthAdjust="spacingAndGlyphs">1875</text>
        
        <text x="166.86" y="483.74" text-anchor="middle" style="font-size: 8.80px;fill: #4D4D4D; font-family: &quot;Arial&quot;;" textLength="19.58px" lengthAdjust="spacingAndGlyphs">1900</text>
        
        <text x="274.75" y="483.74" text-anchor="middle" style="font-size: 8.80px;fill: #4D4D4D; font-family: &quot;Arial&quot;;" textLength="19.58px" lengthAdjust="spacingAndGlyphs">1925</text>
        
        <text x="382.64" y="483.74" text-anchor="middle" style="font-size: 8.80px;fill: #4D4D4D; font-family: &quot;Arial&quot;;" textLength="19.58px" lengthAdjust="spacingAndGlyphs">1950</text>
        
        <text x="490.54" y="483.74" text-anchor="middle" style="font-size: 8.80px;fill: #4D4D4D; font-family: &quot;Arial&quot;;" textLength="19.58px" lengthAdjust="spacingAndGlyphs">1975</text>
        
        <text x="268.28" y="496.20" text-anchor="middle" style="font-size: 11.00px; font-family: &quot;Arial&quot;;" textLength="21.41px" lengthAdjust="spacingAndGlyphs">year</text>
        
        <text transform="translate(13.36,238.99) rotate(-90)" text-anchor="middle" style="font-size: 11.00px; font-family: &quot;Arial&quot;;" textLength="22.62px" lengthAdjust="spacingAndGlyphs">level</text>
        
    </g>
    
</svg>