<?xml version="1.0" encoding="UTF-8"?><svg xmlns="http://www.w3.org/2000/svg" xmlns:xlink="http://www.w3.org/1999/xlink" class="svglite" width="504.00pt" height="504.00pt" viewBox="0 0 504.00 504.00">
    
    <defs>
          
        <style type="text/css"><![CDATA[
    .svglite line, .svglite polyline, .svglite polygon, .svglite path, .svglite rect, .svglite circle {
      fill: none;
      stroke: #000000;
      stroke-linecap: round;
      stroke-linejoin: round;
      stroke-miterlimit: 10.00;
    }
    .svglite text {
      white-space: pre;
    }
  ]]></style>
        
    </defs>
    
    <rect width="100%" height="100%" style="stroke: none; fill: #FFFFFF;"/>
    
    <defs>
          
        <clipPath id="cpMC4wMHw1MDQuMDB8MC4wMHw1MDQuMDA=">
                
            <rect x="0.00" y="0.00" width="504.00" height="504.00"/>
              
        </clipPath>
        
    </defs>
    
    <g clip-path="url(#cpMC4wMHw1MDQuMDB8MC4wMHw1MDQuMDA=)">
        
        <rect x="0.00" y="0.00" width="504.00" height="504.00" style="stroke-width: 1.07; stroke: #FFFFFF; fill: #FFFFFF;"/>
        
    </g>
    
    <defs>
          
        <clipPath id="cpNDUuNTl8NDk4LjUyfDUuNDh8NDYyLjEy">
                
            <rect x="45.59" y="5.48" width="452.93" height="456.64"/>
              
        </clipPath>
        
    </defs>
    
    <g clip-path="url(#cpNDUuNTl8NDk4LjUyfDUuNDh8NDYyLjEy)">
        
        <polyline points="45.59,402.45 498.52,402.45 " style="stroke-width: 0.53; stroke: #FFFFFF; stroke-linecap: butt;"/>
        
        <polyline points="45.59,272.72 498.52,272.72 " style="stroke-width: 0.53; stroke: #FFFFFF; stroke-linecap: butt;"/>
        
        <polyline points="45.59,142.99 498.52,142.99 " style="stroke-width: 0.53; stroke: #FFFFFF; stroke-linecap: butt;"/>
        
        <polyline points="45.59,13.26 498.52,13.26 " style="stroke-width: 0.53; stroke: #FFFFFF; stroke-linecap: butt;"/>
        
        <polyline points="118.47,462.12 118.47,5.48 " style="stroke-width: 0.53; stroke: #FFFFFF; stroke-linecap: butt;"/>
        
        <polyline points="249.18,462.12 249.18,5.48 " style="stroke-width: 0.53; stroke: #FFFFFF; stroke-linecap: butt;"/>
        
        <polyline points="379.90,462.12 379.90,5.48 " style="stroke-width: 0.53; stroke: #FFFFFF; stroke-linecap: butt;"/>
        
        <polyline points="45.59,337.58 498.52,337.58 " style="stroke-width: 1.07; stroke: #FFFFFF; stroke-linecap: butt;"/>
        
        <polyline points="45.59,207.85 498.52,207.85 " style="stroke-width: 1.07; stroke: #FFFFFF; stroke-linecap: butt;"/>
        
        <polyline points="45.59,78.13 498.52,78.13 " style="stroke-width: 1.07; stroke: #FFFFFF; stroke-linecap: butt;"/>
        
        <polyline points="53.11,462.12 53.11,5.48 " style="stroke-width: 1.07; stroke: #FFFFFF; stroke-linecap: butt;"/>
        
        <polyline points="183.82,462.12 183.82,5.48 " style="stroke-width: 1.07; stroke: #FFFFFF; stroke-linecap: butt;"/>
        
        <polyline points="314.54,462.12 314.54,5.48 " style="stroke-width: 1.07; stroke: #FFFFFF; stroke-linecap: butt;"/>
        
        <polyline points="445.25,462.12 445.25,5.48 " style="stroke-width: 1.07; stroke: #FFFFFF; stroke-linecap: butt;"/>
        
        <circle cx="170.75" cy="220.83" r="1.95" style="stroke-width: 0.71; fill: #000000;"/>
        
        <circle cx="170.75" cy="220.83" r="1.95" style="stroke-width: 0.71; fill: #000000;"/>
        
        <circle cx="66.18" cy="194.88" r="1.95" style="stroke-width: 0.71; fill: #000000;"/>
        
        <circle cx="66.18" cy="207.85" r="1.95" style="stroke-width: 0.71; fill: #000000;"/>
        
        <circle cx="236.11" cy="259.75" r="1.95" style="stroke-width: 0.71; fill: #000000;"/>
        
        <circle cx="236.11" cy="259.75" r="1.95" style="stroke-width: 0.71; fill: #000000;"/>
        
        <circle cx="255.72" cy="246.77" r="1.95" style="stroke-width: 0.71; fill: #000000;"/>
        
        <circle cx="170.75" cy="259.75" r="1.95" style="stroke-width: 0.71; fill: #000000;"/>
        
        <circle cx="170.75" cy="272.72" r="1.95" style="stroke-width: 0.71; fill: #000000;"/>
        
        <circle cx="66.18" cy="233.80" r="1.95" style="stroke-width: 0.71; fill: #000000;"/>
        
        <circle cx="66.18" cy="246.77" r="1.95" style="stroke-width: 0.71; fill: #000000;"/>
        
        <circle cx="236.11" cy="272.72" r="1.95" style="stroke-width: 0.71; fill: #000000;"/>
        
        <circle cx="236.11" cy="272.72" r="1.95" style="stroke-width: 0.71; fill: #000000;"/>
        
        <circle cx="255.72" cy="272.72" r="1.95" style="stroke-width: 0.71; fill: #000000;"/>
        
        <circle cx="255.72" cy="272.72" r="1.95" style="stroke-width: 0.71; fill: #000000;"/>
        
        <circle cx="236.11" cy="285.69" r="1.95" style="stroke-width: 0.71; fill: #000000;"/>
        
        <circle cx="255.72" cy="272.72" r="1.95" style="stroke-width: 0.71; fill: #000000;"/>
        
        <circle cx="327.61" cy="298.66" r="1.95" style="stroke-width: 0.71; fill: #000000;"/>
        
        <circle cx="399.50" cy="337.58" r="1.95" style="stroke-width: 0.71; fill: #000000;"/>
        
        <circle cx="399.50" cy="402.45" r="1.95" style="stroke-width: 0.71; fill: #000000;"/>
        
        <circle cx="399.50" cy="337.58" r="1.95" style="stroke-width: 0.71; fill: #000000;"/>
        
        <circle cx="425.65" cy="376.50" r="1.95" style="stroke-width: 0.71; fill: #000000;"/>
        
        <circle cx="92.32" cy="376.50" r="1.95" style="stroke-width: 0.71; fill: #000000;"/>
        
        <circle cx="425.65" cy="259.75" r="1.95" style="stroke-width: 0.71; fill: #000000;"/>
        
        <circle cx="425.65" cy="298.66" r="1.95" style="stroke-width: 0.71; fill: #000000;"/>
        
        <circle cx="458.33" cy="259.75" r="1.95" style="stroke-width: 0.71; fill: #000000;"/>
        
        <circle cx="458.33" cy="272.72" r="1.95" style="stroke-width: 0.71; fill: #000000;"/>
        
        <circle cx="98.86" cy="285.69" r="1.95" style="stroke-width: 0.71; fill: #000000;"/>
        
        <circle cx="399.50" cy="350.56" r="1.95" style="stroke-width: 0.71; fill: #000000;"/>
        
        <circle cx="399.50" cy="415.42" r="1.95" style="stroke-width: 0.71; fill: #000000;"/>
        
        <circle cx="425.65" cy="402.45" r="1.95" style="stroke-width: 0.71; fill: #000000;"/>
        
        <circle cx="477.93" cy="376.50" r="1.95" style="stroke-width: 0.71; fill: #000000;"/>
        
        <circle cx="209.97" cy="246.77" r="1.95" style="stroke-width: 0.71; fill: #000000;"/>
        
        <circle cx="209.97" cy="207.85" r="1.95" style="stroke-width: 0.71; fill: #000000;"/>
        
        <circle cx="255.72" cy="259.75" r="1.95" style="stroke-width: 0.71; fill: #000000;"/>
        
        <circle cx="281.86" cy="220.83" r="1.95" style="stroke-width: 0.71; fill: #000000;"/>
        
        <circle cx="288.40" cy="259.75" r="1.95" style="stroke-width: 0.71; fill: #000000;"/>
        
        <circle cx="209.97" cy="285.69" r="1.95" style="stroke-width: 0.71; fill: #000000;"/>
        
        <circle cx="72.72" cy="285.69" r="1.95" style="stroke-width: 0.71; fill: #000000;"/>
        
        <circle cx="268.79" cy="311.64" r="1.95" style="stroke-width: 0.71; fill: #000000;"/>
        
        <circle cx="268.79" cy="311.64" r="1.95" style="stroke-width: 0.71; fill: #000000;"/>
        
        <circle cx="268.79" cy="285.69" r="1.95" style="stroke-width: 0.71; fill: #000000;"/>
        
        <circle cx="268.79" cy="285.69" r="1.95" style="stroke-width: 0.71; fill: #000000;"/>
        
        <circle cx="268.79" cy="376.50" r="1.95" style="stroke-width: 0.71; fill: #000000;"/>
        
        <circle cx="301.47" cy="311.64" r="1.95" style="stroke-width: 0.71; fill: #000000;"/>
        
        <circle cx="301.47" cy="324.61" r="1.95" style="stroke-width: 0.71; fill: #000000;"/>
        
        <circle cx="301.47" cy="298.66" r="1.95" style="stroke-width: 0.71; fill: #000000;"/>
        
        <circle cx="79.25" cy="298.66" r="1.95" style="stroke-width: 0.71; fill: #000000;"/>
        
        <circle cx="294.93" cy="350.56" r="1.95" style="stroke-width: 0.71; fill: #000000;"/>
        
        <circle cx="294.93" cy="363.53" r="1.95" style="stroke-width: 0.71; fill: #000000;"/>
        
        <circle cx="308.00" cy="376.50" r="1.95" style="stroke-width: 0.71; fill: #000000;"/>
        
        <circle cx="308.00" cy="376.50" r="1.95" style="stroke-width: 0.71; fill: #000000;"/>
        
        <circle cx="360.29" cy="350.56" r="1.95" style="stroke-width: 0.71; fill: #000000;"/>
        
        <circle cx="360.29" cy="350.56" r="1.95" style="stroke-width: 0.71; fill: #000000;"/>
        
        <circle cx="360.29" cy="441.36" r="1.95" style="stroke-width: 0.71; fill: #000000;"/>
        
        <circle cx="392.97" cy="376.50" r="1.95" style="stroke-width: 0.71; fill: #000000;"/>
        
        <circle cx="392.97" cy="402.45" r="1.95" style="stroke-width: 0.71; fill: #000000;"/>
        
        <circle cx="308.00" cy="376.50" r="1.95" style="stroke-width: 0.71; fill: #000000;"/>
        
        <circle cx="360.29" cy="376.50" r="1.95" style="stroke-width: 0.71; fill: #000000;"/>
        
        <circle cx="360.29" cy="441.36" r="1.95" style="stroke-width: 0.71; fill: #000000;"/>
        
        <circle cx="360.29" cy="376.50" r="1.95" style="stroke-width: 0.71; fill: #000000;"/>
        
        <circle cx="392.97" cy="389.47" r="1.95" style="stroke-width: 0.71; fill: #000000;"/>
        
        <circle cx="425.65" cy="363.53" r="1.95" style="stroke-width: 0.71; fill: #000000;"/>
        
        <circle cx="438.72" cy="402.45" r="1.95" style="stroke-width: 0.71; fill: #000000;"/>
        
        <circle cx="360.29" cy="389.47" r="1.95" style="stroke-width: 0.71; fill: #000000;"/>
        
        <circle cx="360.29" cy="441.36" r="1.95" style="stroke-width: 0.71; fill: #000000;"/>
        
        <circle cx="360.29" cy="376.50" r="1.95" style="stroke-width: 0.71; fill: #000000;"/>
        
        <circle cx="360.29" cy="376.50" r="1.95" style="stroke-width: 0.71; fill: #000000;"/>
        
        <circle cx="360.29" cy="389.47" r="1.95" style="stroke-width: 0.71; fill: #000000;"/>
        
        <circle cx="360.29" cy="441.36" r="1.95" style="stroke-width: 0.71; fill: #000000;"/>
        
        <circle cx="392.97" cy="402.45" r="1.95" style="stroke-width: 0.71; fill: #000000;"/>
        
        <circle cx="392.97" cy="389.47" r="1.95" style="stroke-width: 0.71; fill: #000000;"/>
        
        <circle cx="425.65" cy="376.50" r="1.95" style="stroke-width: 0.71; fill: #000000;"/>
        
        <circle cx="438.72" cy="402.45" r="1.95" style="stroke-width: 0.71; fill: #000000;"/>
        
        <circle cx="353.75" cy="376.50" r="1.95" style="stroke-width: 0.71; fill: #000000;"/>
        
        <circle cx="406.04" cy="376.50" r="1.95" style="stroke-width: 0.71; fill: #000000;"/>
        
        <circle cx="406.04" cy="363.53" r="1.95" style="stroke-width: 0.71; fill: #000000;"/>
        
        <circle cx="79.25" cy="376.50" r="1.95" style="stroke-width: 0.71; fill: #000000;"/>
        
        <circle cx="79.25" cy="350.56" r="1.95" style="stroke-width: 0.71; fill: #000000;"/>
        
        <circle cx="79.25" cy="376.50" r="1.95" style="stroke-width: 0.71; fill: #000000;"/>
        
        <circle cx="79.25" cy="350.56" r="1.95" style="stroke-width: 0.71; fill: #000000;"/>
        
        <circle cx="353.75" cy="350.56" r="1.95" style="stroke-width: 0.71; fill: #000000;"/>
        
        <circle cx="85.79" cy="376.50" r="1.95" style="stroke-width: 0.71; fill: #000000;"/>
        
        <circle cx="327.61" cy="376.50" r="1.95" style="stroke-width: 0.71; fill: #000000;"/>
        
        <circle cx="327.61" cy="376.50" r="1.95" style="stroke-width: 0.71; fill: #000000;"/>
        
        <circle cx="353.75" cy="389.47" r="1.95" style="stroke-width: 0.71; fill: #000000;"/>
        
        <circle cx="353.75" cy="389.47" r="1.95" style="stroke-width: 0.71; fill: #000000;"/>
        
        <circle cx="353.75" cy="376.50" r="1.95" style="stroke-width: 0.71; fill: #000000;"/>
        
        <circle cx="406.04" cy="402.45" r="1.95" style="stroke-width: 0.71; fill: #000000;"/>
        
        <circle cx="406.04" cy="376.50" r="1.95" style="stroke-width: 0.71; fill: #000000;"/>
        
        <circle cx="301.47" cy="259.75" r="1.95" style="stroke-width: 0.71; fill: #000000;"/>
        
        <circle cx="301.47" cy="272.72" r="1.95" style="stroke-width: 0.71; fill: #000000;"/>
        
        <circle cx="79.25" cy="259.75" r="1.95" style="stroke-width: 0.71; fill: #000000;"/>
        
        <circle cx="79.25" cy="285.69" r="1.95" style="stroke-width: 0.71; fill: #000000;"/>
        
        <circle cx="353.75" cy="324.61" r="1.95" style="stroke-width: 0.71; fill: #000000;"/>
        
        <circle cx="353.75" cy="311.64" r="1.95" style="stroke-width: 0.71; fill: #000000;"/>
        
        <circle cx="353.75" cy="298.66" r="1.95" style="stroke-width: 0.71; fill: #000000;"/>
        
        <circle cx="353.75" cy="311.64" r="1.95" style="stroke-width: 0.71; fill: #000000;"/>
        
        <circle cx="406.04" cy="337.58" r="1.95" style="stroke-width: 0.71; fill: #000000;"/>
        
        <circle cx="157.68" cy="168.94" r="1.95" style="stroke-width: 0.71; fill: #000000;"/>
        
        <circle cx="157.68" cy="181.91" r="1.95" style="stroke-width: 0.71; fill: #000000;"/>
        
        <circle cx="157.68" cy="181.91" r="1.95" style="stroke-width: 0.71; fill: #000000;"/>
        
        <circle cx="157.68" cy="220.83" r="1.95" style="stroke-width: 0.71; fill: #000000;"/>
        
        <circle cx="157.68" cy="181.91" r="1.95" style="stroke-width: 0.71; fill: #000000;"/>
        
        <circle cx="170.75" cy="155.96" r="1.95" style="stroke-width: 0.71; fill: #000000;"/>
        
        <circle cx="170.75" cy="130.02" r="1.95" style="stroke-width: 0.71; fill: #000000;"/>
        
        <circle cx="170.75" cy="130.02" r="1.95" style="stroke-width: 0.71; fill: #000000;"/>
        
        <circle cx="66.18" cy="220.83" r="1.95" style="stroke-width: 0.71; fill: #000000;"/>
        
        <circle cx="209.97" cy="259.75" r="1.95" style="stroke-width: 0.71; fill: #000000;"/>
        
        <circle cx="209.97" cy="246.77" r="1.95" style="stroke-width: 0.71; fill: #000000;"/>
        
        <circle cx="209.97" cy="207.85" r="1.95" style="stroke-width: 0.71; fill: #000000;"/>
        
        <circle cx="209.97" cy="194.88" r="1.95" style="stroke-width: 0.71; fill: #000000;"/>
        
        <circle cx="216.50" cy="259.75" r="1.95" style="stroke-width: 0.71; fill: #000000;"/>
        
        <circle cx="216.50" cy="259.75" r="1.95" style="stroke-width: 0.71; fill: #000000;"/>
        
        <circle cx="268.79" cy="233.80" r="1.95" style="stroke-width: 0.71; fill: #000000;"/>
        
        <circle cx="66.18" cy="259.75" r="1.95" style="stroke-width: 0.71; fill: #000000;"/>
        
        <circle cx="66.18" cy="220.83" r="1.95" style="stroke-width: 0.71; fill: #000000;"/>
        
        <circle cx="66.18" cy="233.80" r="1.95" style="stroke-width: 0.71; fill: #000000;"/>
        
        <circle cx="66.18" cy="246.77" r="1.95" style="stroke-width: 0.71; fill: #000000;"/>
        
        <circle cx="229.57" cy="285.69" r="1.95" style="stroke-width: 0.71; fill: #000000;"/>
        
        <circle cx="229.57" cy="285.69" r="1.95" style="stroke-width: 0.71; fill: #000000;"/>
        
        <circle cx="229.57" cy="285.69" r="1.95" style="stroke-width: 0.71; fill: #000000;"/>
        
        <circle cx="72.72" cy="311.64" r="1.95" style="stroke-width: 0.71; fill: #000000;"/>
        
        <circle cx="294.93" cy="350.56" r="1.95" style="stroke-width: 0.71; fill: #000000;"/>
        
        <circle cx="79.25" cy="337.58" r="1.95" style="stroke-width: 0.71; fill: #000000;"/>
        
        <circle cx="360.29" cy="376.50" r="1.95" style="stroke-width: 0.71; fill: #000000;"/>
        
        <circle cx="360.29" cy="441.36" r="1.95" style="stroke-width: 0.71; fill: #000000;"/>
        
        <circle cx="360.29" cy="350.56" r="1.95" style="stroke-width: 0.71; fill: #000000;"/>
        
        <circle cx="425.65" cy="363.53" r="1.95" style="stroke-width: 0.71; fill: #000000;"/>
        
        <circle cx="451.79" cy="415.42" r="1.95" style="stroke-width: 0.71; fill: #000000;"/>
        
        <circle cx="79.25" cy="402.45" r="1.95" style="stroke-width: 0.71; fill: #000000;"/>
        
        <circle cx="327.61" cy="363.53" r="1.95" style="stroke-width: 0.71; fill: #000000;"/>
        
        <circle cx="340.68" cy="363.53" r="1.95" style="stroke-width: 0.71; fill: #000000;"/>
        
        <circle cx="353.75" cy="402.45" r="1.95" style="stroke-width: 0.71; fill: #000000;"/>
        
        <circle cx="406.04" cy="376.50" r="1.95" style="stroke-width: 0.71; fill: #000000;"/>
        
        <circle cx="406.04" cy="389.47" r="1.95" style="stroke-width: 0.71; fill: #000000;"/>
        
        <circle cx="406.04" cy="363.53" r="1.95" style="stroke-width: 0.71; fill: #000000;"/>
        
        <circle cx="79.25" cy="376.50" r="1.95" style="stroke-width: 0.71; fill: #000000;"/>
        
        <circle cx="79.25" cy="350.56" r="1.95" style="stroke-width: 0.71; fill: #000000;"/>
        
        <circle cx="353.75" cy="350.56" r="1.95" style="stroke-width: 0.71; fill: #000000;"/>
        
        <circle cx="85.79" cy="376.50" r="1.95" style="stroke-width: 0.71; fill: #000000;"/>
        
        <circle cx="209.97" cy="220.83" r="1.95" style="stroke-width: 0.71; fill: #000000;"/>
        
        <circle cx="209.97" cy="246.77" r="1.95" style="stroke-width: 0.71; fill: #000000;"/>
        
        <circle cx="216.50" cy="194.88" r="1.95" style="stroke-width: 0.71; fill: #000000;"/>
        
        <circle cx="216.50" cy="181.91" r="1.95" style="stroke-width: 0.71; fill: #000000;"/>
        
        <circle cx="281.86" cy="246.77" r="1.95" style="stroke-width: 0.71; fill: #000000;"/>
        
        <circle cx="281.86" cy="259.75" r="1.95" style="stroke-width: 0.71; fill: #000000;"/>
        
        <circle cx="72.72" cy="259.75" r="1.95" style="stroke-width: 0.71; fill: #000000;"/>
        
        <circle cx="72.72" cy="272.72" r="1.95" style="stroke-width: 0.71; fill: #000000;"/>
        
        <circle cx="281.86" cy="272.72" r="1.95" style="stroke-width: 0.71; fill: #000000;"/>
        
        <circle cx="268.79" cy="376.50" r="1.95" style="stroke-width: 0.71; fill: #000000;"/>
        
        <circle cx="268.79" cy="376.50" r="1.95" style="stroke-width: 0.71; fill: #000000;"/>
        
        <circle cx="79.25" cy="337.58" r="1.95" style="stroke-width: 0.71; fill: #000000;"/>
        
        <circle cx="419.11" cy="363.53" r="1.95" style="stroke-width: 0.71; fill: #000000;"/>
        
        <circle cx="255.72" cy="259.75" r="1.95" style="stroke-width: 0.71; fill: #000000;"/>
        
        <circle cx="301.47" cy="259.75" r="1.95" style="stroke-width: 0.71; fill: #000000;"/>
        
        <circle cx="301.47" cy="246.77" r="1.95" style="stroke-width: 0.71; fill: #000000;"/>
        
        <circle cx="301.47" cy="233.80" r="1.95" style="stroke-width: 0.71; fill: #000000;"/>
        
        <circle cx="399.50" cy="272.72" r="1.95" style="stroke-width: 0.71; fill: #000000;"/>
        
        <circle cx="216.50" cy="272.72" r="1.95" style="stroke-width: 0.71; fill: #000000;"/>
        
        <circle cx="216.50" cy="285.69" r="1.95" style="stroke-width: 0.71; fill: #000000;"/>
        
        <circle cx="216.50" cy="246.77" r="1.95" style="stroke-width: 0.71; fill: #000000;"/>
        
        <circle cx="216.50" cy="272.72" r="1.95" style="stroke-width: 0.71; fill: #000000;"/>
        
        <circle cx="216.50" cy="259.75" r="1.95" style="stroke-width: 0.71; fill: #000000;"/>
        
        <circle cx="216.50" cy="298.66" r="1.95" style="stroke-width: 0.71; fill: #000000;"/>
        
        <circle cx="196.90" cy="259.75" r="1.95" style="stroke-width: 0.71; fill: #000000;"/>
        
        <circle cx="196.90" cy="259.75" r="1.95" style="stroke-width: 0.71; fill: #000000;"/>
        
        <circle cx="216.50" cy="259.75" r="1.95" style="stroke-width: 0.71; fill: #000000;"/>
        
        <circle cx="216.50" cy="259.75" r="1.95" style="stroke-width: 0.71; fill: #000000;"/>
        
        <circle cx="216.50" cy="272.72" r="1.95" style="stroke-width: 0.71; fill: #000000;"/>
        
        <circle cx="216.50" cy="246.77" r="1.95" style="stroke-width: 0.71; fill: #000000;"/>
        
        <circle cx="216.50" cy="272.72" r="1.95" style="stroke-width: 0.71; fill: #000000;"/>
        
        <circle cx="216.50" cy="246.77" r="1.95" style="stroke-width: 0.71; fill: #000000;"/>
        
        <circle cx="229.57" cy="337.58" r="1.95" style="stroke-width: 0.71; fill: #000000;"/>
        
        <circle cx="229.57" cy="337.58" r="1.95" style="stroke-width: 0.71; fill: #000000;"/>
        
        <circle cx="275.33" cy="350.56" r="1.95" style="stroke-width: 0.71; fill: #000000;"/>
        
        <circle cx="275.33" cy="376.50" r="1.95" style="stroke-width: 0.71; fill: #000000;"/>
        
        <circle cx="79.25" cy="337.58" r="1.95" style="stroke-width: 0.71; fill: #000000;"/>
        
        <circle cx="360.29" cy="376.50" r="1.95" style="stroke-width: 0.71; fill: #000000;"/>
        
        <circle cx="196.90" cy="220.83" r="1.95" style="stroke-width: 0.71; fill: #000000;"/>
        
        <circle cx="196.90" cy="246.77" r="1.95" style="stroke-width: 0.71; fill: #000000;"/>
        
        <circle cx="209.97" cy="194.88" r="1.95" style="stroke-width: 0.71; fill: #000000;"/>
        
        <circle cx="209.97" cy="194.88" r="1.95" style="stroke-width: 0.71; fill: #000000;"/>
        
        <circle cx="72.72" cy="259.75" r="1.95" style="stroke-width: 0.71; fill: #000000;"/>
        
        <circle cx="72.72" cy="259.75" r="1.95" style="stroke-width: 0.71; fill: #000000;"/>
        
        <circle cx="281.86" cy="233.80" r="1.95" style="stroke-width: 0.71; fill: #000000;"/>
        
        <circle cx="196.90" cy="246.77" r="1.95" style="stroke-width: 0.71; fill: #000000;"/>
        
        <circle cx="196.90" cy="220.83" r="1.95" style="stroke-width: 0.71; fill: #000000;"/>
        
        <circle cx="209.97" cy="194.88" r="1.95" style="stroke-width: 0.71; fill: #000000;"/>
        
        <circle cx="209.97" cy="194.88" r="1.95" style="stroke-width: 0.71; fill: #000000;"/>
        
        <circle cx="72.72" cy="259.75" r="1.95" style="stroke-width: 0.71; fill: #000000;"/>
        
        <circle cx="72.72" cy="259.75" r="1.95" style="stroke-width: 0.71; fill: #000000;"/>
        
        <circle cx="268.79" cy="246.77" r="1.95" style="stroke-width: 0.71; fill: #000000;"/>
        
        <circle cx="170.75" cy="207.85" r="1.95" style="stroke-width: 0.71; fill: #000000;"/>
        
        <circle cx="170.75" cy="168.94" r="1.95" style="stroke-width: 0.71; fill: #000000;"/>
        
        <circle cx="170.75" cy="142.99" r="1.95" style="stroke-width: 0.71; fill: #000000;"/>
        
        <circle cx="170.75" cy="117.05" r="1.95" style="stroke-width: 0.71; fill: #000000;"/>
        
        <circle cx="170.75" cy="142.99" r="1.95" style="stroke-width: 0.71; fill: #000000;"/>
        
        <circle cx="360.29" cy="402.45" r="1.95" style="stroke-width: 0.71; fill: #000000;"/>
        
        <circle cx="425.65" cy="363.53" r="1.95" style="stroke-width: 0.71; fill: #000000;"/>
        
        <circle cx="229.57" cy="337.58" r="1.95" style="stroke-width: 0.71; fill: #000000;"/>
        
        <circle cx="229.57" cy="337.58" r="1.95" style="stroke-width: 0.71; fill: #000000;"/>
        
        <circle cx="229.57" cy="311.64" r="1.95" style="stroke-width: 0.71; fill: #000000;"/>
        
        <circle cx="275.33" cy="376.50" r="1.95" style="stroke-width: 0.71; fill: #000000;"/>
        
        <circle cx="275.33" cy="350.56" r="1.95" style="stroke-width: 0.71; fill: #000000;"/>
        
        <circle cx="79.25" cy="363.53" r="1.95" style="stroke-width: 0.71; fill: #000000;"/>
        
        <circle cx="79.25" cy="337.58" r="1.95" style="stroke-width: 0.71; fill: #000000;"/>
        
        <circle cx="66.18" cy="220.83" r="1.95" style="stroke-width: 0.71; fill: #000000;"/>
        
        <circle cx="66.18" cy="259.75" r="1.95" style="stroke-width: 0.71; fill: #000000;"/>
        
        <circle cx="66.18" cy="220.83" r="1.95" style="stroke-width: 0.71; fill: #000000;"/>
        
        <circle cx="66.18" cy="220.83" r="1.95" style="stroke-width: 0.71; fill: #000000;"/>
        
        <circle cx="236.11" cy="285.69" r="1.95" style="stroke-width: 0.71; fill: #000000;"/>
        
        <circle cx="177.29" cy="26.24" r="1.95" style="stroke-width: 0.71; fill: #000000;"/>
        
        <circle cx="66.18" cy="220.83" r="1.95" style="stroke-width: 0.71; fill: #000000;"/>
        
        <circle cx="66.18" cy="259.75" r="1.95" style="stroke-width: 0.71; fill: #000000;"/>
        
        <circle cx="66.18" cy="220.83" r="1.95" style="stroke-width: 0.71; fill: #000000;"/>
        
        <circle cx="66.18" cy="220.83" r="1.95" style="stroke-width: 0.71; fill: #000000;"/>
        
        <circle cx="216.50" cy="220.83" r="1.95" style="stroke-width: 0.71; fill: #000000;"/>
        
        <circle cx="216.50" cy="220.83" r="1.95" style="stroke-width: 0.71; fill: #000000;"/>
        
        <circle cx="236.11" cy="298.66" r="1.95" style="stroke-width: 0.71; fill: #000000;"/>
        
        <circle cx="236.11" cy="285.69" r="1.95" style="stroke-width: 0.71; fill: #000000;"/>
        
        <circle cx="177.29" cy="26.24" r="1.95" style="stroke-width: 0.71; fill: #000000;"/>
        
        <circle cx="177.29" cy="65.15" r="1.95" style="stroke-width: 0.71; fill: #000000;"/>
        
        <circle cx="66.18" cy="220.83" r="1.95" style="stroke-width: 0.71; fill: #000000;"/>
        
        <circle cx="66.18" cy="259.75" r="1.95" style="stroke-width: 0.71; fill: #000000;"/>
        
        <circle cx="216.50" cy="233.80" r="1.95" style="stroke-width: 0.71; fill: #000000;"/>
        
        <circle cx="216.50" cy="220.83" r="1.95" style="stroke-width: 0.71; fill: #000000;"/>
        
        <circle cx="170.75" cy="220.83" r="1.95" style="stroke-width: 0.71; fill: #000000;"/>
        
        <circle cx="170.75" cy="220.83" r="1.95" style="stroke-width: 0.71; fill: #000000;"/>
        
        <circle cx="66.18" cy="233.80" r="1.95" style="stroke-width: 0.71; fill: #000000;"/>
        
        <circle cx="66.18" cy="220.83" r="1.95" style="stroke-width: 0.71; fill: #000000;"/>
        
        <circle cx="236.11" cy="259.75" r="1.95" style="stroke-width: 0.71; fill: #000000;"/>
        
        <circle cx="236.11" cy="259.75" r="1.95" style="stroke-width: 0.71; fill: #000000;"/>
        
        <circle cx="288.40" cy="259.75" r="1.95" style="stroke-width: 0.71; fill: #000000;"/>
        
    </g>
    
    <g clip-path="url(#cpMC4wMHw1MDQuMDB8MC4wMHw1MDQuMDA=)">
        
        <text x="40.66" y="344.74" text-anchor="end" style="font-size: 20.00px;fill: #FF0000; font-family: &quot;Arial&quot;;" textLength="22.25px" lengthAdjust="spacingAndGlyphs">20</text>
        
        <text x="40.66" y="215.02" text-anchor="end" style="font-size: 20.00px;fill: #FF0000; font-family: &quot;Arial&quot;;" textLength="22.25px" lengthAdjust="spacingAndGlyphs">30</text>
        
        <text x="40.66" y="85.29" text-anchor="end" style="font-size: 20.00px;fill: #FF0000; font-family: &quot;Arial&quot;;" textLength="22.25px" lengthAdjust="spacingAndGlyphs">40</text>
        
        <polyline points="42.85,337.58 45.59,337.58 " style="stroke-width: 1.07; stroke: #333333; stroke-linecap: butt;"/>
        
        <polyline points="42.85,207.85 45.59,207.85 " style="stroke-width: 1.07; stroke: #333333; stroke-linecap: butt;"/>
        
        <polyline points="42.85,78.13 45.59,78.13 " style="stroke-width: 1.07; stroke: #333333; stroke-linecap: butt;"/>
        
        <polyline points="53.11,464.86 53.11,462.12 " style="stroke-width: 1.07; stroke: #333333; stroke-linecap: butt;"/>
        
        <polyline points="183.82,464.86 183.82,462.12 " style="stroke-width: 1.07; stroke: #333333; stroke-linecap: butt;"/>
        
        <polyline points="314.54,464.86 314.54,462.12 " style="stroke-width: 1.07; stroke: #333333; stroke-linecap: butt;"/>
        
        <polyline points="445.25,464.86 445.25,462.12 " style="stroke-width: 1.07; stroke: #333333; stroke-linecap: butt;"/>
        
        <text x="53.11" y="481.37" text-anchor="middle" style="font-size: 20.00px;fill: #FF0000; font-family: &quot;Arial&quot;;" textLength="11.12px" lengthAdjust="spacingAndGlyphs">0</text>
        
        <text x="183.82" y="481.37" text-anchor="middle" style="font-size: 20.00px;fill: #FF0000; font-family: &quot;Arial&quot;;" textLength="22.25px" lengthAdjust="spacingAndGlyphs">20</text>
        
        <text x="314.54" y="481.37" text-anchor="middle" style="font-size: 20.00px;fill: #FF0000; font-family: &quot;Arial&quot;;" textLength="22.25px" lengthAdjust="spacingAndGlyphs">40</text>
        
        <text x="445.25" y="481.37" text-anchor="middle" style="font-size: 20.00px;fill: #FF0000; font-family: &quot;Arial&quot;;" textLength="22.25px" lengthAdjust="spacingAndGlyphs">60</text>
        
        <text x="272.06" y="496.20" text-anchor="middle" style="font-size: 11.00px; font-family: &quot;Arial&quot;;" textLength="22.62px" lengthAdjust="spacingAndGlyphs">displ</text>
        
        <text transform="translate(13.36,233.80) rotate(-90)" text-anchor="middle" style="font-size: 11.00px; font-family: &quot;Arial&quot;;" textLength="19.56px" lengthAdjust="spacingAndGlyphs">hwy</text>
        
    </g>
    
</svg>